HIERARCHY
ROOT Hips
{
	OFFSET 0.000000 0.000000 0.000000
	CHANNELS 6 Xposition Yposition Zposition Zrotation Yrotation Xrotation 
	JOINT LHipJoint
	{
		OFFSET 0.000000 0.000000 0.000000
		CHANNELS 3 Zrotation Yrotation Xrotation
		JOINT LeftUpLeg
		{
			OFFSET 1.363060 -1.794630 0.839290
			CHANNELS 3 Zrotation Yrotation Xrotation
			JOINT LeftLeg
			{
				OFFSET 2.448110 -6.726130 0.000000
				CHANNELS 3 Zrotation Yrotation Xrotation
				JOINT LeftFoot
				{
					OFFSET 2.562200 -7.039590 0.000000
					CHANNELS 3 Zrotation Yrotation Xrotation
					JOINT LeftToeBase
					{
						OFFSET 0.157640 -0.433110 2.322550
						CHANNELS 3 Zrotation Yrotation Xrotation
						End Site
						{
							OFFSET 0.000000 0.000000 0.000000
						}
					}
				}
			}
		}
	}
	JOINT RHipJoint
	{
		OFFSET 0.000000 0.000000 0.000000
		CHANNELS 3 Zrotation Yrotation Xrotation
		JOINT RightUpLeg
		{
			OFFSET -1.305520 -1.794630 0.839290
			CHANNELS 3 Zrotation Yrotation Xrotation
			JOINT RightLeg
			{
				OFFSET -2.542530 -6.985550 0.000000
				CHANNELS 3 Zrotation Yrotation Xrotation
				JOINT RightFoot
				{
					OFFSET -2.568260 -7.056230 0.000000
					CHANNELS 3 Zrotation Yrotation Xrotation
					JOINT RightToeBase
					{
						OFFSET -0.164730 -0.452590 2.363150
						CHANNELS 3 Zrotation Yrotation Xrotation
						End Site
						{
							OFFSET 0.000000 0.000000 0.000000
						}
					}
				}
			}
		}
	}
	JOINT LowerBack
	{
		OFFSET 0.000000 0.000000 0.000000
		CHANNELS 3 Zrotation Yrotation Xrotation
		JOINT Spine
		{
			OFFSET 0.028270 2.035590 -0.193380
			CHANNELS 3 Zrotation Yrotation Xrotation
			JOINT Spine1
			{
				OFFSET 0.056720 2.048850 -0.042750
				CHANNELS 3 Zrotation Yrotation Xrotation
				JOINT Neck
				{
					OFFSET 0.000000 0.000000 0.000000
					CHANNELS 3 Zrotation Yrotation Xrotation
					JOINT Neck1
					{
						OFFSET -0.054170 1.746240 0.172020
						CHANNELS 3 Zrotation Yrotation Xrotation
						JOINT Head
						{
							OFFSET 0.104070 1.761360 -0.123970
							CHANNELS 3 Zrotation Yrotation Xrotation
							End Site
							{
								OFFSET 0.000000 0.000000 0.000000
							}
						}
					}
				}
				JOINT LeftShoulder
				{
					OFFSET 0.000000 0.000000 0.000000
					CHANNELS 3 Zrotation Yrotation Xrotation
					JOINT LeftArm
					{
						OFFSET 3.362410 1.200890 -0.311210
						CHANNELS 3 Zrotation Yrotation Xrotation
						JOINT LeftForeArm
						{
							OFFSET 4.983000 -0.000000 -0.000000
							CHANNELS 3 Zrotation Yrotation Xrotation
							JOINT LeftHand
							{
								OFFSET 3.483560 -0.000000 -0.000000
								CHANNELS 3 Zrotation Yrotation Xrotation
								JOINT LeftFingerBase
								{
									OFFSET 0.000000 0.000000 0.000000
									CHANNELS 3 Zrotation Yrotation Xrotation
									JOINT LeftHandIndex1
									{
										OFFSET 0.715260 -0.000000 -0.000000
										CHANNELS 3 Zrotation Yrotation Xrotation
										End Site
										{
											OFFSET 0.000000 0.000000 0.000000
										}
									}
								}
								JOINT LThumb
								{
									OFFSET 0.000000 0.000000 0.000000
									CHANNELS 3 Zrotation Yrotation Xrotation
									End Site
									{
										OFFSET 0.000000 0.000000 0.000000
									}
								}
							}
						}
					}
				}
				JOINT RightShoulder
				{
					OFFSET 0.000000 0.000000 0.000000
					CHANNELS 3 Zrotation Yrotation Xrotation
					JOINT RightArm
					{
						OFFSET -3.136600 1.374050 -0.404650
						CHANNELS 3 Zrotation Yrotation Xrotation
						JOINT RightForeArm
						{
							OFFSET -5.241900 -0.000000 -0.000000
							CHANNELS 3 Zrotation Yrotation Xrotation
							JOINT RightHand
							{
								OFFSET -3.444170 -0.000000 -0.000000
								CHANNELS 3 Zrotation Yrotation Xrotation
								JOINT RightFingerBase
								{
									OFFSET 0.000000 0.000000 0.000000
									CHANNELS 3 Zrotation Yrotation Xrotation
									JOINT RightHandIndex1
									{
										OFFSET -0.622530 -0.000000 -0.000000
										CHANNELS 3 Zrotation Yrotation Xrotation
										End Site
										{
											OFFSET 0.000000 0.000000 0.000000
										}
									}
								}
								JOINT RThumb
								{
									OFFSET 0.000000 0.000000 0.000000
									CHANNELS 3 Zrotation Yrotation Xrotation
									End Site
									{
										OFFSET 0.000000 0.000000 0.000000
									}
								}
							}
						}
					}
				}
			}
		}
	}
}
MOTION
Frames: 4
Frame Time: 0.033333
-1.702345 16.290431 23.769118 3.095067 3.195777 8.056147 -4.494439 14.018123 -2.056227 -21.752360 -5.117880 -10.055719 -14.122016 -8.399181 -21.829033 1.891193 14.326202 31.255414 0.000000 0.000000 0.000000 10.011966 -9.470140 5.643473 3.473542 6.527365 -11.192116 -2.056479 -19.510803 49.088137 13.309679 -20.783855 8.948267 0.000000 0.000000 0.000000 -2.480322 -0.663298 2.063354 0.827378 -1.504029 12.946251 1.550463 -0.438031 -9.989954 5.971159 -0.946303 -9.164068 -2.361641 -0.190695 -1.495006 0.000000 0.000000 0.000000 1.209279 9.533382 9.018705 -69.706954 -4.547593 19.918051 -15.098412 -77.990396 0.416655 2.432214 -14.961340 0.201500 2.492694 -14.956849 0.000000 0.000000 0.000000 0.000000 0.000000 0.000000 0.000000 -5.683817 -11.291846 7.816923 67.686683 4.932172 18.524971 16.392826 76.877190 0.359151 -1.068046 12.549931 0.176811 -1.093228 12.551646 0.000000 0.000000 0.000000 0.000000 0.000000 0.000000 0.000000 
-1.715170 16.317060 23.968278 3.430284 3.084003 8.092074 -4.046457 14.188570 -2.273146 -22.739376 -5.073208 -9.529868 -13.488896 -7.988986 -20.331805 1.396791 12.641561 27.870034 0.000000 0.000000 0.000000 9.971745 -9.569050 5.948739 3.137712 6.382486 -11.091434 -2.132754 -19.357991 48.698238 13.658557 -22.364479 11.141898 0.000000 0.000000 0.000000 -2.600910 -0.639741 1.982133 0.610913 -1.518362 13.024009 1.532583 -0.473546 -10.081956 5.846727 -0.920061 -8.995146 -2.251618 -0.179473 -1.439348 0.000000 0.000000 0.000000 1.134271 9.565226 9.028310 -69.624137 -4.537712 20.013375 -15.256195 -77.878586 0.422109 2.382955 -14.937628 0.204314 2.442227 -14.933532 0.000000 0.000000 0.000000 0.000000 0.000000 0.000000 0.000000 -5.508068 -11.456512 7.785544 67.556259 4.878415 18.552503 16.516703 76.732144 0.359040 -1.046027 12.523369 0.176785 -1.070879 12.525156 0.000000 0.000000 0.000000 0.000000 0.000000 0.000000 0.000000 
-1.727239 16.345599 24.164605 3.745550 2.970207 8.127260 -3.654784 14.365575 -2.497042 -23.661314 -5.042217 -9.073150 -12.819422 -7.541331 -18.752633 0.981284 10.992447 24.583932 0.000000 0.000000 0.000000 9.965789 -9.672391 6.261490 2.781955 6.220515 -11.002050 -2.212107 -19.192442 48.262394 13.940422 -23.934164 13.287342 0.000000 0.000000 0.000000 -2.720488 -0.622387 1.906464 0.413831 -1.534115 13.090483 1.518783 -0.508799 -10.162624 5.736568 -0.896734 -8.842796 -2.153385 -0.169641 -1.389331 0.000000 0.000000 0.000000 1.067890 9.591560 9.037777 -69.549973 -4.529780 20.097574 -15.395464 -77.779352 0.426901 2.339648 -14.916605 0.206786 2.397861 -14.912853 0.000000 0.000000 0.000000 0.000000 0.000000 0.000000 0.000000 -5.350957 -11.605185 7.757042 67.439326 4.829876 18.576903 16.626104 76.604129 0.358942 -1.026685 12.500038 0.176762 -1.051250 12.501887 0.000000 0.000000 0.000000 0.000000 0.000000 0.000000 0.000000 
-1.737334 16.375527 24.357367 4.038516 2.855092 8.162673 -3.322557 14.549631 -2.724265 -24.509236 -5.023791 -8.687913 -12.138425 -7.058534 -17.108353 0.638093 9.407066 21.434783 0.000000 0.000000 0.000000 9.992670 -9.779728 6.580559 2.408849 6.045111 -10.925578 -2.298096 -19.015620 47.790230 14.145803 -25.470818 15.368744 0.000000 0.000000 0.000000 -2.836707 -0.611439 1.834990 0.236402 -1.551482 13.146343 1.508837 -0.543781 -10.232210 5.640373 -0.876287 -8.707206 -2.066890 -0.161133 -1.344968 0.000000 0.000000 0.000000 1.010090 9.612307 9.046969 -69.484525 -4.523770 20.170821 -15.516214 -77.692835 0.431040 2.302234 -14.898352 0.208920 2.359535 -14.894895 0.000000 0.000000 0.000000 0.000000 0.000000 0.000000 0.000000 -5.212354 -11.737860 7.731446 67.336062 4.786491 18.598273 16.721073 76.493199 0.358862 -1.009974 12.479969 0.176744 -1.034292 12.481870 0.000000 0.000000 0.000000 0.000000 0.000000 0.000000 0.000000 
